<svg width="64" height="64" viewBox="0 0 64 64" fill="none" xmlns="http://www.w3.org/2000/svg">
<g clip-path="url(#clip0_296_430)">
<path fill-rule="evenodd" clip-rule="evenodd" d="M50.5288 5.90854C51.2273 5.62255 51.9757 5.47552 52.7365 5.47552C55.9561 5.47552 58.5678 8.08698 58.5678 11.3068C58.5678 12.0717 58.4189 12.8239 58.1299 13.5257C61.9631 18.9369 64.0008 25.3567 64.0008 31.9998C64.0008 49.6728 49.6737 64 32.0008 64C14.3281 64 0.000976562 49.6728 0.000976562 31.9998C0.000976562 14.3272 14.3281 7.62939e-06 32.0008 7.62939e-06C38.6663 7.62939e-06 45.1075 2.05082 50.5288 5.90854Z" fill="#C3C5CA"/>
<path fill-rule="evenodd" clip-rule="evenodd" d="M32 1.08823C38.8603 1.08823 45.1979 3.3241 50.3253 7.10578L50.4161 7.16909C51.102 6.7838 51.8932 6.56375 52.7357 6.56375C55.3545 6.56375 57.4785 8.68758 57.4785 11.3067C57.4785 12.1523 57.2568 12.9466 56.8685 13.6342L56.9314 13.7256C60.69 18.8448 62.9113 25.1623 62.9113 31.9997C62.9113 49.0719 49.072 62.9116 32 62.9116C14.928 62.9116 1.08868 49.0719 1.08868 31.9997C1.08868 14.9276 14.928 1.08823 32 1.08823Z" fill="white"/>
<path fill-rule="evenodd" clip-rule="evenodd" d="M31.9999 4.36887C38.0858 4.36887 43.7113 6.33818 48.2759 9.67268C46.8573 13.5429 50.603 17.1359 54.3579 15.7679C57.672 20.3254 59.6281 25.9338 59.6281 32.0001C59.6281 47.2602 47.2584 59.6309 31.9999 59.6309C16.7413 59.6309 4.37195 47.2602 4.37195 32.0001C4.37195 16.7397 16.7413 4.36887 31.9999 4.36887Z" fill="#FFD900"/>
<path fill-rule="evenodd" clip-rule="evenodd" d="M31.1049 14.4896C32.8797 14.4896 34.3185 15.9284 34.3185 17.7027C34.3185 19.4775 32.8797 20.9163 31.1049 20.9163C29.3302 20.9163 27.8918 19.4775 27.8918 17.7027C27.8918 15.9284 29.3302 14.4896 31.1049 14.4896ZM31.0823 10.3744C35.1159 10.3744 38.3857 13.6444 38.3857 17.6779C38.3857 21.7115 35.1159 24.9817 31.0823 24.9817C27.0486 24.9817 23.7787 21.7115 23.7787 17.6779C23.7787 13.6444 27.0486 10.3744 31.0823 10.3744ZM42.9634 25.0543L42.9149 24.5843L42.8416 24.1278L42.7444 23.6849L42.6224 23.2555L42.4754 22.8409L42.3039 22.4404L42.1083 22.0537L41.8874 21.6818L41.6431 21.3246L41.3733 20.9818L41.0803 20.6544L40.7627 20.3415L40.4215 20.0434L40.0557 19.7602L39.6437 19.3614C39.2291 21.4814 38.0467 23.3265 36.398 24.5954C36.5537 24.6941 36.6818 24.7811 36.7176 24.827C36.7687 24.8988 36.8142 24.97 36.8573 25.046C36.8955 25.1229 36.9291 25.1977 36.9596 25.2774C36.9861 25.3591 37.0082 25.4384 37.0266 25.5225C37.05 25.6653 37.0594 25.8002 37.0573 25.9454L37.0468 26.0854C37.0314 26.2001 37.0092 26.8645 36.9756 26.9759C36.9534 27.0396 36.9291 27.1007 36.9014 27.163C36.8599 27.2457 36.8165 27.323 36.7655 27.4018C36.6593 27.5515 36.545 27.6775 36.4 27.7942L36.2965 27.867C36.1856 27.936 36.0762 27.987 35.9518 28.0304L35.8258 28.0677C35.5611 28.1421 35.2961 28.1878 35.0215 28.2117C34.924 28.2189 34.8275 28.224 34.7294 28.227C34.0551 28.2483 33.3796 28.2495 32.7053 28.2499C30.0611 28.2555 26.9046 28.2519 24.1138 28.2515V33.5901L32.3334 33.5897C33.0312 33.5887 33.7289 33.584 34.4269 33.5646C34.7572 33.5553 35.0874 33.5432 35.4167 33.5221C35.9019 33.4894 36.3798 33.4279 36.8579 33.3405L37.2252 33.2643C37.4038 33.2216 37.5801 33.1761 37.7563 33.1259C37.9262 33.0748 38.0941 33.0199 38.2617 32.9621C38.4241 32.9014 38.5835 32.8383 38.7417 32.7704C38.8968 32.7008 39.0477 32.6286 39.1975 32.5521C39.344 32.4731 39.4857 32.393 39.6265 32.3068C39.7646 32.219 39.8977 32.1288 40.0298 32.0344C40.1598 31.9371 40.2842 31.8384 40.4076 31.7348C40.5281 31.6287 40.6442 31.5203 40.7587 31.4088C40.8954 31.2677 41.0283 31.1247 41.1573 30.9772C41.2821 30.8288 41.4012 30.6793 41.5173 30.5254C41.6284 30.3703 41.7355 30.2141 41.8383 30.0537C41.9366 29.8911 42.0296 29.7283 42.1202 29.5615C42.205 29.3922 42.2857 29.2227 42.3621 29.049C42.4345 28.8732 42.5015 28.6975 42.5646 28.5183C42.6244 28.3348 42.6776 28.1524 42.728 27.9667C42.7743 27.7772 42.8151 27.5889 42.8518 27.3966C42.8845 27.201 42.9128 27.0058 42.9367 26.8084C42.9559 26.6058 42.9707 26.4039 42.9818 26.2013C42.9887 25.9798 42.9905 25.7602 42.9877 25.5385L42.9634 25.0543Z" fill="white"/>
<path fill-rule="evenodd" clip-rule="evenodd" d="M52.4925 42.964H50.7063V41.0495C50.7063 40.5987 50.6517 40.2828 50.5422 40.103C50.4322 39.9232 50.2496 39.8324 49.9968 39.8324C49.8048 39.8324 49.64 39.8985 49.5045 40.0355C49.369 40.1712 49.301 40.336 49.301 40.5277C49.301 40.7276 49.3678 40.8904 49.5007 41.0212C49.6327 41.1527 49.7986 41.219 49.9968 41.219C50.0455 41.219 50.0999 41.2124 50.1582 41.1986C50.2154 41.1834 50.2807 41.1638 50.3544 41.1365V42.9901L50.322 42.9958C50.1592 43.0176 50.0395 43.011 49.9701 43.011C49.2796 43.011 48.6959 42.7703 48.219 42.2908C47.7413 41.8106 47.5022 41.2225 47.5022 40.5277C47.5022 40.1983 47.5651 39.884 47.6855 39.5863C47.8072 39.2861 47.9878 39.0238 48.2168 38.793C48.4532 38.5564 48.7206 38.3732 49.0232 38.2484C49.3245 38.1236 49.6437 38.0603 49.9788 38.0603C50.4733 38.0603 50.9172 38.1837 51.3108 38.4298C51.7044 38.6741 52.0047 39.0131 52.1999 39.4483C52.302 39.6751 52.374 39.9127 52.4219 40.1546C52.4701 40.3959 52.4925 40.6984 52.4925 41.0597V42.964ZM43.7809 42.9456V41.0412C44.1289 41.0412 44.3664 40.9848 44.4958 40.8697C44.6224 40.7563 44.6962 40.4944 44.7195 40.0889C44.7573 39.4512 44.9294 38.9755 45.232 38.6618C45.5348 38.3493 45.9732 38.1932 46.5507 38.1932H47.2597V40.103C47.227 40.103 47.1926 40.0937 47.16 40.0937C47.0516 40.0937 46.9606 40.1133 46.8821 40.1518C46.8055 40.1892 46.7434 40.2454 46.6985 40.3174C46.6271 40.4305 46.5822 40.6141 46.5662 40.8651C46.5505 41.1179 46.5246 41.3068 46.4912 41.4306C46.3668 41.8968 46.0994 42.2705 45.6925 42.5464C45.2848 42.8247 44.7966 42.964 44.2244 42.964C44.1425 42.964 44.0052 42.9568 43.8138 42.9456C43.8011 42.9434 43.7896 42.9456 43.7809 42.9456ZM38.4896 40.5821C38.4896 40.336 38.5264 40.0949 38.5976 39.8585C38.669 39.6247 38.7746 39.4036 38.9111 39.1963C39.1498 38.8355 39.4513 38.5564 39.8172 38.357C40.1839 38.1594 40.5787 38.0603 41.0042 38.0603C41.3339 38.0603 41.6526 38.1258 41.9604 38.2546C42.2689 38.3861 42.5429 38.5704 42.7834 38.8121C43.0222 39.0497 43.2059 39.3223 43.3345 39.6263C43.4623 39.9309 43.5266 40.2519 43.5266 40.5821C43.5266 40.9193 43.4623 41.2376 43.3347 41.54C43.2089 41.8424 43.0259 42.113 42.7834 42.3549C42.5451 42.5925 42.2727 42.7768 41.9651 42.905C41.6573 43.0322 41.3357 43.0961 41.0042 43.0961C40.6679 43.0961 40.3493 43.0322 40.0463 42.9056C39.7446 42.7806 39.4738 42.5961 39.2323 42.3549C38.991 42.113 38.807 41.8424 38.681 41.54C38.5539 41.2376 38.4896 40.9193 38.4896 40.5821ZM40.353 40.5821C40.353 40.7601 40.4169 40.9116 40.5427 41.0394C40.6707 41.1656 40.8232 41.2289 41.0042 41.2289C41.1808 41.2289 41.3339 41.1656 41.4631 41.0394C41.5925 40.9116 41.6585 40.7601 41.6585 40.5821C41.6585 40.4023 41.5925 40.248 41.4631 40.1186C41.3339 39.9885 41.1808 39.9232 41.0042 39.9232C40.8232 39.9232 40.6707 39.9871 40.5427 40.1162C40.4169 40.2434 40.353 40.4005 40.353 40.5821ZM33.2749 36.2811H35.0563V40.0381C35.0563 40.5027 35.1109 40.8254 35.2205 41.0095C35.3311 41.1929 35.5146 41.2835 35.7704 41.2835C35.9561 41.2835 36.1173 41.2156 36.2548 41.0768C36.3929 40.9371 36.4629 40.7725 36.4629 40.5842C36.4629 40.3789 36.3943 40.2078 36.2604 40.0684C36.1266 39.9297 35.9637 39.8597 35.7704 39.8597C35.7225 39.8597 35.6687 39.867 35.6151 39.8809C35.5597 39.8951 35.4804 39.9232 35.377 39.9653V38.0714C35.4084 38.068 35.4729 38.0617 35.5694 38.0534C35.6662 38.0457 35.7427 38.0441 35.7967 38.0441C36.4845 38.0441 37.0682 38.2896 37.549 38.7825C38.0287 39.2746 38.2696 39.8763 38.2696 40.5842C38.2696 40.9167 38.2087 41.2338 38.087 41.5392C37.965 41.8424 37.7886 42.1114 37.5603 42.3468C37.3233 42.5877 37.051 42.7723 36.7471 42.9013C36.4445 43.0318 36.1243 43.0961 35.7884 43.0961C35.2949 43.0961 34.8473 42.9695 34.4487 42.7139C34.0521 42.4596 33.7572 42.114 33.5645 41.6769C33.4623 41.4462 33.3885 41.2057 33.3434 40.9577C33.2991 40.7079 33.2749 40.4005 33.2749 40.03V36.2811ZM32.0065 40.9512V42.964H30.1796V40.6363C30.1796 40.1123 30.2298 39.7032 30.3269 39.4087C30.4246 39.1144 30.5924 38.8539 30.8256 38.6227C31.0026 38.4474 31.2097 38.3082 31.4457 38.2089C31.6813 38.1104 31.919 38.0603 32.1568 38.0603C32.2733 38.0603 32.3882 38.0649 32.501 38.0751C32.6131 38.0837 32.7237 38.0963 32.8305 38.1151V40.0375C32.8085 40.0334 32.7765 40.0308 32.7348 40.0253C32.6335 40.0092 32.5694 40.0009 32.5431 40.0009C32.3449 40.0009 32.2048 40.0646 32.1259 40.193C32.0454 40.3218 32.0065 40.5741 32.0065 40.9512ZM29.599 42.964H27.8127V41.0495C27.8127 40.5987 27.7589 40.2828 27.6493 40.103C27.5385 39.9232 27.3571 39.8324 27.1036 39.8324C26.9115 39.8324 26.7465 39.8985 26.6116 40.0355C26.4754 40.1712 26.4085 40.336 26.4085 40.5277C26.4085 40.7276 26.4734 40.8904 26.6069 41.0212C26.7384 41.1527 26.9054 41.219 27.1036 41.219C27.1524 41.219 27.2068 41.2124 27.2648 41.1986C27.3225 41.1834 27.3878 41.1638 27.4612 41.1365V42.9901L27.4284 42.9958C27.2658 43.0176 27.1459 43.011 27.0769 43.011C26.3854 43.011 25.8026 42.7703 25.3247 42.2908C24.849 41.8106 24.6095 41.2225 24.6095 40.5277C24.6095 40.1983 24.6708 39.884 24.7925 39.5863C24.9141 39.2845 25.0949 39.0238 25.323 38.793C25.5599 38.5564 25.8264 38.3732 26.1302 38.2484C26.4314 38.1228 26.7497 38.0603 27.0866 38.0603C27.5805 38.0603 28.0237 38.1837 28.4168 38.4298C28.812 38.6741 29.1105 39.0131 29.3063 39.4483C29.4097 39.6751 29.4807 39.9127 29.5292 40.1546C29.5759 40.3959 29.599 40.6984 29.599 41.0597V42.964ZM19.3775 36.2811H21.1577V40.0381C21.1577 40.5027 21.2125 40.8254 21.3217 41.0095C21.4324 41.1929 21.6158 41.2835 21.8725 41.2835C22.0573 41.2835 22.2191 41.2156 22.3556 41.0768C22.4944 40.9371 22.5623 40.7725 22.5623 40.5842C22.5623 40.3789 22.4954 40.2078 22.3615 40.0684C22.2266 39.9297 22.0644 39.8597 21.8725 39.8597C21.8237 39.8597 21.7699 39.867 21.7151 39.8809C21.6607 39.8951 21.5818 39.9232 21.4781 39.9653V38.0714C21.5094 38.068 21.5737 38.0617 21.6706 38.0534C21.7665 38.0457 21.845 38.0441 21.8988 38.0441C22.5864 38.0441 23.1699 38.2896 23.6502 38.7825C24.131 39.2746 24.3717 39.8763 24.3717 40.5842C24.3717 40.9167 24.3098 41.2338 24.188 41.5392C24.0665 41.8424 23.8897 42.1114 23.6616 42.3468C23.4245 42.5877 23.1513 42.7723 22.8493 42.9013C22.5458 43.0318 22.2254 43.0961 21.8887 43.0961C21.3954 43.0961 20.9488 42.9695 20.5504 42.7139C20.1536 42.4596 19.8569 42.114 19.6657 41.6769C19.5636 41.4462 19.4904 41.2057 19.4455 40.9577C19.3992 40.7079 19.3775 40.4005 19.3775 40.03V36.2811ZM15.0286 39.8231C15.0452 39.8231 15.0607 39.8249 15.0775 39.8269C15.1275 39.8314 15.1732 39.8415 15.2189 39.8579C15.2452 39.867 15.2695 39.8773 15.2935 39.8892C15.3172 39.9006 15.3404 39.9147 15.3627 39.9297L15.3904 39.9497C15.426 39.9794 15.4596 40.0092 15.4895 40.044C15.5091 40.0656 15.5259 40.0878 15.5433 40.1123C15.5587 40.1356 15.5738 40.1592 15.587 40.1853C15.5995 40.2106 15.6106 40.2351 15.6212 40.2622C15.6288 40.2838 15.6357 40.304 15.6428 40.3269C15.6519 40.3615 15.6578 40.3953 15.6628 40.4305C15.6665 40.4661 15.6683 40.5027 15.6691 40.5403C15.6683 40.5741 15.6665 40.6078 15.6628 40.642C15.6578 40.6758 15.6519 40.7079 15.6428 40.7407C15.6333 40.7712 15.6222 40.8012 15.6086 40.8323C15.5945 40.8631 15.5795 40.8904 15.5617 40.9193L15.5433 40.9452C15.5091 40.9927 15.4707 41.0338 15.4298 41.0724C15.4037 41.0936 15.3785 41.1124 15.3514 41.1317C15.3293 41.145 15.305 41.1586 15.281 41.1711C15.2618 41.1788 15.2422 41.1863 15.2227 41.1939C15.1916 41.2047 15.1602 41.2124 15.1289 41.219L15.0973 41.2225C15.0468 41.2289 14.9986 41.2289 14.9481 41.2247C14.9206 41.2217 14.8943 41.217 14.867 41.2113C14.8417 41.2057 14.816 41.1976 14.7909 41.1889C14.7659 41.1788 14.7426 41.1693 14.7185 41.1551C14.6896 41.1404 14.6627 41.1226 14.6354 41.1039C14.6091 41.0831 14.5842 41.0597 14.56 41.0372C14.5351 41.0111 14.5128 40.9856 14.4914 40.9589C14.4789 40.9399 14.4653 40.9213 14.4538 40.9025C14.4376 40.8726 14.4218 40.8437 14.4079 40.8119C14.3998 40.7911 14.3917 40.7694 14.386 40.748C14.3757 40.7154 14.368 40.6825 14.3628 40.6489L14.3581 40.6133C14.3531 40.5542 14.3516 40.496 14.3575 40.4361C14.3612 40.4131 14.3638 40.3912 14.3682 40.369C14.3757 40.336 14.385 40.304 14.3953 40.2723C14.4069 40.2407 14.4204 40.2116 14.4362 40.1815C14.4461 40.1619 14.4586 40.1431 14.4702 40.1245C14.4906 40.0967 14.5098 40.07 14.5325 40.045C14.5563 40.0197 14.5798 39.9962 14.6057 39.9736C14.6316 39.9521 14.6579 39.9341 14.6854 39.9165C14.7137 39.8985 14.742 39.885 14.7717 39.8726C14.7911 39.8629 14.812 39.8579 14.8312 39.8512C14.8635 39.8415 14.8943 39.8344 14.9275 39.8306C14.9604 39.8249 14.9938 39.8231 15.0286 39.8231ZM15.1002 37.927C15.1647 37.9304 15.2296 37.9329 15.2935 37.9377C15.358 37.9434 15.4203 37.9531 15.4832 37.962C15.5455 37.9725 15.6056 37.9848 15.6665 37.9988C15.7282 38.0142 15.7858 38.0314 15.8459 38.0488C15.9041 38.068 15.9611 38.0898 16.0188 38.1127C16.0758 38.1367 16.1314 38.1614 16.1871 38.1903C16.2423 38.2174 16.2961 38.2484 16.3489 38.2789C16.4027 38.3123 16.4552 38.3465 16.5074 38.3813C16.5584 38.4189 16.6081 38.4571 16.6577 38.4969C16.7072 38.539 16.7556 38.5817 16.8037 38.6256C16.8512 38.6705 16.897 38.718 16.9418 38.7637C16.9845 38.8129 17.0254 38.8604 17.0658 38.9101C17.1045 38.9605 17.1409 39.0103 17.1773 39.0632C17.2108 39.1144 17.2434 39.167 17.2748 39.221C17.3053 39.2746 17.3336 39.329 17.3603 39.3844C17.386 39.4408 17.4105 39.4975 17.4325 39.5563C17.4539 39.6124 17.4736 39.6712 17.4924 39.7301C17.5088 39.7911 17.5241 39.8512 17.5375 39.9137C17.5502 39.9756 17.5617 40.0381 17.5708 40.1L17.585 40.2286C17.5939 40.3475 17.5998 40.4652 17.5949 40.5842C17.5909 40.6556 17.5862 40.7237 17.5769 40.7957C17.5654 40.8857 17.5486 40.9745 17.5274 41.0647C17.5179 41.1039 17.5059 41.143 17.4958 41.1834C17.455 41.3147 17.4072 41.4429 17.3494 41.5663C17.3083 41.6514 17.2642 41.734 17.2153 41.8147C17.1714 41.8856 17.1251 41.9518 17.0753 42.0181C17.0375 42.0673 16.9985 42.115 16.9574 42.1617C16.8798 42.2497 16.7966 42.3324 16.7089 42.4097C16.6599 42.4521 16.6114 42.4922 16.5606 42.5322C16.5096 42.5709 16.4579 42.6069 16.4061 42.6425C16.3533 42.676 16.2993 42.7064 16.2453 42.7385C16.1911 42.7675 16.1363 42.7937 16.0799 42.82C16.0232 42.8443 15.9662 42.8678 15.9092 42.89C15.8499 42.91 15.7917 42.9282 15.732 42.9456C15.6715 42.9602 15.6106 42.9752 15.5504 42.9885C15.4875 42.9996 15.426 43.0089 15.3627 43.0156C15.2988 43.0239 15.2349 43.0277 15.1704 43.0322C15.1044 43.0352 15.0403 43.0352 14.9736 43.0352C14.9088 43.0322 14.8435 43.0288 14.7788 43.0239C14.7161 43.016 14.6538 43.011 14.5907 42.9996C14.529 42.9885 14.4675 42.9764 14.4069 42.9626C14.3468 42.9464 14.2871 42.9295 14.2279 42.9115C14.1698 42.8908 14.1114 42.8706 14.055 42.8482C13.9977 42.8239 13.9421 42.7976 13.8869 42.7703C13.8315 42.7416 13.7777 42.7122 13.7239 42.6807C13.6709 42.6477 13.6189 42.6121 13.5669 42.5775C13.5151 42.5391 13.4654 42.5015 13.416 42.4612C13.3663 42.4188 13.3176 42.3751 13.2694 42.3324C13.2223 42.2855 13.1766 42.2396 13.1315 42.1916C13.089 42.1429 13.0473 42.0946 13.0069 42.0438C12.9677 41.9943 12.9302 41.9437 12.8951 41.8911C12.8607 41.8395 12.8275 41.7873 12.796 41.734C12.7656 41.6804 12.7371 41.6253 12.7106 41.5707C12.6841 41.5139 12.6602 41.4587 12.637 41.4015C12.6166 41.3434 12.5953 41.2866 12.5781 41.2277C12.5605 41.1687 12.5458 41.1082 12.5312 41.0485C12.5185 40.9856 12.5079 40.9258 12.4988 40.8631C12.4906 40.7996 12.4835 40.7369 12.4786 40.6732C12.4746 40.5939 12.4724 40.513 12.4726 40.4331C12.4738 40.3726 12.4774 40.315 12.4811 40.2549C12.4902 40.1667 12.5013 40.0798 12.5171 39.9922C12.529 39.9351 12.5417 39.8781 12.5559 39.8231C12.5791 39.7369 12.606 39.6556 12.637 39.5721C12.6584 39.5179 12.6821 39.4633 12.7057 39.4105C12.7444 39.329 12.7858 39.2503 12.8313 39.1721C12.8621 39.1227 12.8936 39.0721 12.9268 39.0238C12.9766 38.9512 13.0302 38.883 13.0862 38.8163C13.1351 38.7613 13.1843 38.7093 13.2354 38.6573C13.2882 38.608 13.342 38.5584 13.3982 38.5123C13.4433 38.4757 13.4909 38.4401 13.5384 38.4065C13.6122 38.355 13.6877 38.3078 13.7655 38.2623C13.8159 38.235 13.8673 38.2079 13.919 38.1812C14.008 38.1406 14.0962 38.103 14.1886 38.0714C14.2588 38.0473 14.3282 38.0261 14.3994 38.0079C14.4843 37.9877 14.5679 37.9703 14.6538 37.9571C14.7292 37.947 14.8037 37.9381 14.8791 37.9325C14.9315 37.9304 14.9833 37.927 15.0342 37.926L15.1002 37.927ZM12.4556 43.7215C13.4611 43.7215 14.4647 43.7233 15.4691 43.7215C15.6883 43.7215 15.9067 43.7215 16.1252 43.7138C16.1579 43.7132 16.1887 43.7103 16.221 43.7093C16.3094 43.701 16.396 43.6855 16.4815 43.6608L16.5234 43.6495C16.5626 43.6345 16.5982 43.6163 16.6346 43.5951L16.6684 43.5708C16.7147 43.5326 16.7525 43.4905 16.7863 43.4409C16.8037 43.4153 16.8179 43.3892 16.831 43.3623C16.8393 43.3412 16.8472 43.321 16.8547 43.299C16.8648 43.264 16.8729 43.2284 16.8773 43.1895L16.8814 43.1438C16.8818 43.0939 16.8789 43.0512 16.8711 43.0043C16.8648 42.9764 16.8573 42.9501 16.8496 42.9238C16.8393 42.8955 16.8286 42.8724 16.8163 42.8461C16.8017 42.8213 16.7875 42.7976 16.7707 42.7731C16.738 42.7308 16.7016 42.6916 16.6658 42.6524C17.2499 42.19 17.5419 41.7176 17.7142 40.997L17.8546 41.0973L17.9729 41.1909L18.0831 41.2898L18.1863 41.3922L18.2826 41.5018L18.3697 41.6148L18.45 41.7327L18.5206 41.8563L18.5839 41.9837L18.6397 42.116L18.6875 42.2537L18.7261 42.3957L18.7593 42.5415L18.7819 42.6942L18.7985 42.8488L18.806 43.011C18.8068 43.0824 18.8068 43.1544 18.8038 43.2284C18.8001 43.2959 18.7959 43.3623 18.7888 43.4294C18.7815 43.4951 18.773 43.5574 18.7621 43.6242C18.7489 43.6879 18.7362 43.7498 18.7218 43.8125C18.7053 43.8746 18.6879 43.9348 18.668 43.9955C18.6474 44.0536 18.6266 44.113 18.6027 44.1709C18.5784 44.2279 18.5524 44.2837 18.524 44.3404C18.4949 44.3952 18.465 44.4488 18.4328 44.5034C18.3993 44.5555 18.3649 44.6081 18.3289 44.6595C18.291 44.7103 18.2524 44.759 18.2118 44.8092C18.1697 44.8567 18.1266 44.9038 18.0831 44.9516C18.0453 44.989 18.0075 45.0236 17.9683 45.0594C17.9286 45.0937 17.8882 45.1259 17.8463 45.1585C17.803 45.1894 17.7603 45.2197 17.7152 45.2487C17.6699 45.2776 17.623 45.3037 17.5755 45.3312C17.5274 45.3542 17.4776 45.3787 17.4276 45.4018C17.3767 45.4244 17.3245 45.4454 17.2717 45.4651C17.2179 45.4843 17.1631 45.5021 17.1083 45.5203C17.0503 45.5371 16.9932 45.5512 16.936 45.5662L16.8163 45.5915C16.6609 45.6192 16.5058 45.64 16.3485 45.6507C16.2419 45.6576 16.1345 45.6627 16.0279 45.6651C15.801 45.671 15.5744 45.6726 15.3477 45.6736H12.4556V43.7215Z" fill="#E0040B"/>
<path fill-rule="evenodd" clip-rule="evenodd" d="M24.1138 34.1594H33.9813C34.0545 34.158 34.1286 34.1574 34.2016 34.156C34.547 34.1459 34.891 34.1321 35.234 34.1107C35.7407 34.0765 36.2386 34.0114 36.737 33.9208L37.1212 33.8389C37.3069 33.7942 37.4907 33.7464 37.6756 33.6942C37.8532 33.6402 38.0277 33.583 38.2031 33.5213C38.3723 33.4574 38.538 33.3911 38.7042 33.3205C38.8652 33.2471 39.0224 33.1708 39.1789 33.0901C39.3312 33.0076 39.4788 32.9221 39.6261 32.8319C39.7701 32.7396 39.909 32.6452 40.0476 32.5463C40.1821 32.4433 40.3125 32.3392 40.4411 32.2308C40.5669 32.1191 40.6883 32.0057 40.8068 31.888C40.9504 31.7393 41.0891 31.5884 41.2234 31.4333C41.3535 31.2782 41.4771 31.1202 41.5988 30.9588C41.7155 30.7952 41.8259 30.6304 41.9343 30.4617C42.0361 30.2912 42.1334 30.1197 42.2274 29.9445C42.3166 29.7659 42.4005 29.5888 42.48 29.4059C42.5556 29.2203 42.6252 29.0352 42.692 28.8473C42.753 28.654 42.8105 28.4629 42.8625 28.2673C42.9102 28.0677 42.9533 27.8694 42.9909 27.6678C43.0259 27.4619 43.0548 27.2564 43.0799 27.0489C43.1003 26.8355 43.1151 26.6232 43.1276 26.4102C43.1343 26.1768 43.1353 25.9454 43.1333 25.7129L43.1078 25.2038L43.0568 24.7093L42.981 24.2287L42.8784 23.7632L42.7516 23.3117L42.5993 22.8753L42.4197 22.4538L42.2159 22.0467L41.9851 21.6559L41.7295 21.2801L41.4491 20.9195L41.1431 20.5751L40.8117 20.2462L40.4549 19.9328L40.0737 19.6348L39.6493 19.3317C39.5375 19.915 39.3674 20.4778 39.1455 21.0134L39.2384 21.0892C39.5549 21.3485 39.8431 21.6361 40.1139 21.9433L40.3319 22.2115C40.4337 22.347 40.5307 22.4839 40.625 22.6259C40.7142 22.7683 40.7981 22.9109 40.8786 23.0585C40.9555 23.2076 41.0256 23.356 41.0942 23.5095C41.1567 23.6633 41.2153 23.8184 41.27 23.9765C41.3205 24.1383 41.365 24.2989 41.4071 24.4634C41.4437 24.6312 41.4767 24.7989 41.5042 24.9684C41.5286 25.1433 41.5476 25.3171 41.5638 25.4928C41.5764 25.7147 41.584 25.9337 41.5822 26.1558C41.579 26.2733 41.5743 26.391 41.5669 26.5087C41.5489 26.7411 41.5201 26.9684 41.4799 27.1986C41.4437 27.3871 41.4012 27.5725 41.3513 27.7578C41.2975 27.9425 41.2382 28.1221 41.1713 28.3031C41.1003 28.4841 41.0232 28.6594 40.9387 28.8358C40.8319 29.0488 40.7172 29.2541 40.5918 29.4565C40.4719 29.6426 40.3465 29.8232 40.214 30.0008C40.0544 30.2066 39.8876 30.4022 39.7076 30.5923C39.5905 30.7113 39.4705 30.8259 39.3456 30.9374C39.19 31.0713 39.0319 31.1954 38.8646 31.3144C38.6976 31.4286 38.5291 31.5334 38.3521 31.6319C38.2459 31.6877 38.1385 31.7417 38.0299 31.7927C37.8435 31.8752 37.6576 31.9484 37.4648 32.0144C37.2826 32.075 37.1012 32.126 36.9135 32.1705C35.9354 32.3936 34.9295 32.4718 33.9277 32.5218C33.2362 32.5527 32.5462 32.5655 31.8541 32.5665H24.4214H24.1138V34.1594ZM31.0823 11.2285C34.6443 11.2285 37.5318 14.116 37.5318 17.6783C37.5318 21.2401 34.6443 24.1276 31.0823 24.1276C27.5203 24.1276 24.6328 21.2401 24.6328 17.6783C24.6328 14.116 27.5203 11.2285 31.0823 11.2285ZM31.0823 9.55753C35.5671 9.55753 39.2026 13.1932 39.2026 17.6779C39.2026 22.163 35.5671 25.7986 31.0823 25.7986C26.5974 25.7986 22.9618 22.163 22.9618 17.6779C22.9618 13.1932 26.5974 9.55753 31.0823 9.55753ZM31.0823 15.746C32.1491 15.746 33.0142 16.611 33.0142 17.6783C33.0142 18.7451 32.1491 19.6102 31.0823 19.6102C30.0152 19.6102 29.1502 18.7451 29.1502 17.6783C29.1502 16.611 30.0152 15.746 31.0823 15.746ZM31.0823 14.1759C33.0166 14.1759 34.5844 15.7438 34.5844 17.6783C34.5844 19.6124 33.0166 21.1802 31.0823 21.1802C29.148 21.1802 27.5801 19.6124 27.5801 17.6783C27.5801 15.7438 29.148 14.1759 31.0823 14.1759ZM24.1138 29.6098H24.4214H24.7822H31.8557C32.6999 29.6041 33.5434 29.5977 34.387 29.5944C34.7025 29.5928 35.018 29.5647 35.3303 29.5259C35.6717 29.4783 36.0004 29.4122 36.33 29.3125C36.417 29.2826 36.5044 29.2526 36.5901 29.2203C36.726 29.1655 36.8557 29.1058 36.9843 29.0372C37.1052 28.9689 37.2179 28.8971 37.3289 28.8156C37.5249 28.6627 37.697 28.4922 37.8594 28.3061C37.9804 28.1605 38.0855 28.0139 38.1849 27.8531C38.2469 27.7457 38.3034 27.6387 38.3553 27.527C38.4306 27.3541 38.4902 27.1852 38.5406 27.0042C38.5707 26.8806 38.5954 26.7595 38.6156 26.6345C38.6494 26.3843 38.6624 26.1404 38.6547 25.8884C38.6512 25.8089 38.6452 25.7294 38.6377 25.6514C38.6167 25.47 38.5853 25.2954 38.5406 25.118C38.4923 24.9441 38.4338 24.7795 38.3626 24.614C38.2864 24.4498 38.2024 24.2961 38.1048 24.143C37.9953 23.9802 37.8774 23.8257 37.7448 23.6811C37.6893 23.6212 37.6325 23.5623 37.5757 23.5037C37.1961 23.9266 36.7762 24.3123 36.3211 24.6545C36.415 24.755 36.507 24.8553 36.5925 24.9645C36.6445 25.04 36.6921 25.1146 36.737 25.1947C36.7772 25.2754 36.8122 25.3543 36.8441 25.4386C36.8721 25.5242 36.8939 25.6073 36.9131 25.6967C36.9384 25.8463 36.9481 25.9877 36.9459 26.1404L36.9348 26.2883C36.919 26.4086 36.8953 26.5206 36.8609 26.6382C36.8375 26.7047 36.8122 26.7692 36.7835 26.8341C36.7406 26.9221 36.6951 27.0034 36.6423 27.0855C36.5309 27.2437 36.4119 27.3752 36.2611 27.4985L36.1527 27.5752C36.036 27.6484 35.9233 27.7014 35.7927 27.7469L35.661 27.7863C35.3849 27.8644 35.1093 27.9129 34.8221 27.937C34.7205 27.9451 34.6192 27.9499 34.5171 27.9542C33.8143 27.976 33.1094 27.9764 32.4058 27.9783C30.1188 27.9823 27.8315 27.9811 25.5445 27.9801H24.1138V29.6098Z" fill="#E0040B"/>
<path fill-rule="evenodd" clip-rule="evenodd" d="M52.7335 8.60624C54.2244 8.60624 55.4339 9.81549 55.4339 11.3069C55.4339 12.7979 54.2244 14.0073 52.7335 14.0073C51.2425 14.0073 50.0334 12.7979 50.0334 11.3069C50.0334 9.81549 51.2425 8.60624 52.7335 8.60624Z" fill="#E0040B"/>
<path fill-rule="evenodd" clip-rule="evenodd" d="M46.1962 46.0798V49.1699C46.1962 49.4047 46.1505 49.6262 46.0585 49.8353C45.9717 50.0443 45.8494 50.2279 45.6914 50.3865C45.5383 50.5444 45.3575 50.6694 45.1484 50.761C44.9396 50.8476 44.7176 50.8911 44.4832 50.8911C44.2482 50.8911 44.0263 50.8476 43.8178 50.761C43.6084 50.6694 43.4248 50.5444 43.2666 50.3865C43.1089 50.2279 42.9841 50.0443 42.8919 49.8353C42.8053 49.6262 42.762 49.4047 42.762 49.1699C42.762 48.9303 42.8053 48.7084 42.8919 48.5043C42.9841 48.2954 43.1089 48.1142 43.2666 47.9613C43.4248 47.8031 43.6084 47.681 43.8178 47.5942C44.0263 47.5026 44.2482 47.4567 44.4832 47.4567H45.5157V46.0798H46.1962ZM44.4832 50.2101C44.626 50.2101 44.7582 50.1848 44.8808 50.1337C45.008 50.0776 45.1178 50.0036 45.2094 49.912C45.3061 49.8149 45.3806 49.7031 45.4315 49.5754C45.4875 49.448 45.5157 49.3129 45.5157 49.1699V48.1372H44.4832C44.3402 48.1372 44.2051 48.1656 44.0775 48.2218C43.95 48.2723 43.8376 48.3464 43.7409 48.443C43.6489 48.5349 43.5751 48.6447 43.5193 48.7721C43.4681 48.8943 43.4426 49.0269 43.4426 49.1699C43.4426 49.3129 43.4681 49.448 43.5193 49.5754C43.5751 49.7031 43.6489 49.8149 43.7409 49.912C43.8376 50.0036 43.95 50.0776 44.0775 50.1337C44.2051 50.1848 44.3402 50.2101 44.4832 50.2101ZM42.5679 47.4567V49.1699C42.5679 49.4047 42.5218 49.6262 42.4303 49.8353C42.3436 50.0443 42.221 50.2279 42.0633 50.3865C41.9051 50.5444 41.7215 50.6694 41.5121 50.761C41.3085 50.8476 41.0866 50.8911 40.8467 50.8911C40.6123 50.8911 40.3903 50.8476 40.1811 50.761C39.9724 50.6694 39.789 50.5444 39.6306 50.3865C39.4777 50.2279 39.3552 50.0443 39.2635 49.8353C39.1766 49.6262 39.1335 49.4047 39.1335 49.1699V47.4567H39.8143V49.1699C39.8143 49.3129 39.8395 49.448 39.8905 49.5754C39.9469 49.7031 40.0208 49.8149 40.1126 49.912C40.2095 50.0036 40.3191 50.0776 40.4412 50.1337C40.5691 50.1848 40.7044 50.2101 40.8467 50.2101C40.9895 50.2101 41.1246 50.1848 41.2523 50.1337C41.3799 50.0776 41.4895 50.0036 41.5811 49.912C41.6782 49.8149 41.7522 49.7031 41.8028 49.5754C41.859 49.448 41.8871 49.3129 41.8871 49.1699V47.4567H42.5679ZM38.5874 47.4567V48.1372H36.5144C36.4177 48.1372 36.3364 48.1706 36.2701 48.2368C36.2033 48.3029 36.1705 48.3848 36.1705 48.4815C36.1705 48.5784 36.2033 48.6625 36.2701 48.7341C36.3364 48.8004 36.4177 48.8332 36.5144 48.8332H37.8915C38.0343 48.8332 38.1669 48.8615 38.2891 48.9177C38.4167 48.9683 38.5263 49.0399 38.618 49.1317C38.7148 49.2233 38.7889 49.3331 38.84 49.4606C38.8963 49.5829 38.924 49.7154 38.924 49.8584C38.924 50.0014 38.8963 50.1365 38.84 50.2639C38.7889 50.3865 38.7148 50.4961 38.618 50.593C38.5263 50.6842 38.4167 50.7582 38.2891 50.8144C38.1669 50.8656 38.0343 50.8911 37.8915 50.8911H35.8263V50.2101H37.8915C37.9936 50.2101 38.0778 50.1771 38.1439 50.111C38.21 50.0443 38.2434 49.9601 38.2434 49.8584C38.2434 49.7617 38.21 49.6798 38.1439 49.6137C38.0778 49.5471 37.9936 49.5138 37.8915 49.5138H36.5144C36.372 49.5138 36.2367 49.4887 36.1093 49.4377C35.9869 49.3815 35.8795 49.3077 35.7881 49.2158C35.6961 49.119 35.6225 49.0089 35.5662 48.8872C35.5151 48.7592 35.4898 48.6241 35.4898 48.4815C35.4898 48.3385 35.5151 48.2062 35.5662 48.0836C35.6225 47.9562 35.6961 47.8466 35.7881 47.7548C35.8795 47.663 35.9869 47.5918 36.1093 47.5408C36.2367 47.485 36.372 47.4567 36.5144 47.4567H38.5874ZM31.8461 49.1851C31.8461 48.9458 31.8891 48.7236 31.9757 48.5199C32.0675 48.3108 32.1901 48.13 32.343 47.9769C32.5012 47.8187 32.6848 47.6963 32.8939 47.6094C33.1028 47.5176 33.3247 47.4714 33.5597 47.4714C33.7988 47.4714 34.0208 47.5176 34.2245 47.6094C34.4336 47.6963 34.6175 47.8187 34.7756 47.9769C34.9334 48.13 35.056 48.3108 35.1429 48.5199C35.2345 48.7236 35.2803 48.9458 35.2803 49.1851C35.2803 49.4197 35.2345 49.6418 35.1429 49.8505C35.056 50.0596 34.9334 50.2435 34.7756 50.4012C34.6175 50.5594 34.4336 50.6842 34.2245 50.7764C34.0208 50.8628 33.7988 50.9062 33.5597 50.9062C33.3247 50.9062 33.1028 50.8628 32.8939 50.7764C32.6848 50.6842 32.5012 50.5594 32.343 50.4012C32.1901 50.2435 32.0675 50.0596 31.9757 49.8505C31.8891 49.6418 31.8461 49.4197 31.8461 49.1851ZM32.5187 49.1851C32.5187 49.3281 32.5446 49.4632 32.5956 49.5906C32.6516 49.7182 32.7254 49.8307 32.8171 49.9274C32.9143 50.019 33.0264 50.093 33.154 50.1488C33.2812 50.2 33.4167 50.2255 33.5597 50.2255C33.7019 50.2255 33.8372 50.2 33.9648 50.1488C34.0922 50.093 34.2019 50.019 34.2939 49.9274C34.3906 49.8307 34.4644 49.7182 34.5155 49.5906C34.5714 49.4632 34.5997 49.3281 34.5997 49.1851C34.5997 49.0427 34.5714 48.91 34.5155 48.7877C34.4644 48.6601 34.3906 48.5504 34.2939 48.4586C34.2019 48.3617 34.0922 48.2879 33.9648 48.2368C33.8372 48.1803 33.7019 48.1528 33.5597 48.1528C33.4167 48.1528 33.2812 48.1803 33.154 48.2368C33.0264 48.2879 32.9143 48.3617 32.8171 48.4586C32.7254 48.5504 32.6516 48.6601 32.5956 48.7877C32.5446 48.91 32.5187 49.0427 32.5187 49.1851ZM28.9213 47.9613C29.0894 47.793 29.2777 47.668 29.4872 47.5867C29.7014 47.5 29.918 47.4567 30.1373 47.4567C30.3565 47.4567 30.5707 47.5 30.78 47.5867C30.9942 47.668 31.1857 47.793 31.3536 47.9613L31.5906 48.1983L31.1168 48.6803L30.8718 48.443C30.7699 48.3413 30.6548 48.2645 30.5274 48.2139C30.4 48.1627 30.2701 48.1372 30.1373 48.1372C30.0046 48.1372 29.8745 48.1627 29.7471 48.2139C29.6197 48.2645 29.5048 48.3413 29.4031 48.443C29.3014 48.5401 29.2245 48.6524 29.174 48.7798C29.1226 48.9072 29.0969 49.0377 29.0969 49.1699C29.0969 49.3026 29.1226 49.4327 29.174 49.5601C29.2245 49.6877 29.3014 49.802 29.4031 49.9043C29.607 50.1082 29.8517 50.2101 30.1373 50.2101C30.275 50.2101 30.4075 50.1848 30.5351 50.1337C30.6627 50.0827 30.775 50.0064 30.8718 49.9043L31.1168 49.6669L31.5906 50.1488L31.3536 50.3865C31.1857 50.5543 30.9942 50.682 30.78 50.7689C30.5707 50.85 30.3565 50.8911 30.1373 50.8911C29.918 50.8911 29.7014 50.85 29.4872 50.7689C29.2777 50.682 29.0894 50.5543 28.9213 50.3865C28.7529 50.2178 28.6281 50.0291 28.5462 49.82C28.4649 49.611 28.4238 49.3971 28.4238 49.1778C28.4238 48.9535 28.4649 48.7365 28.5462 48.5272C28.6281 48.3187 28.7529 48.13 28.9213 47.9613ZM24.7651 49.1716C24.7651 48.9317 24.8082 48.7098 24.8952 48.5059C24.9868 48.2968 25.1094 48.1158 25.2621 47.9629C25.4204 47.8047 25.6041 47.6822 25.813 47.5956C26.0219 47.5038 26.244 47.4581 26.4782 47.4581C26.7183 47.4581 26.9397 47.5038 27.1438 47.5956C27.3531 47.6822 27.5361 47.8047 27.6945 47.9629C27.8527 48.1158 27.975 48.2968 28.0616 48.5059C28.1534 48.7098 28.1995 48.9317 28.1995 49.1716V50.8925H27.5186V49.1716C27.5186 49.0286 27.4906 48.8961 27.4344 48.7735C27.3837 48.6463 27.3098 48.5367 27.2128 48.4447C27.1211 48.348 27.0115 48.274 26.8839 48.2226C26.7563 48.167 26.6212 48.1387 26.4782 48.1387C26.3354 48.1387 26.2005 48.167 26.0733 48.2226C25.9507 48.274 25.8411 48.348 25.7438 48.4447C25.6524 48.5367 25.5784 48.6463 25.5222 48.7735C25.4712 48.8961 25.4457 49.0286 25.4457 49.1716V50.8925H24.7651V49.1716ZM24.066 49.6826L24.5481 50.1644L24.3109 50.4012C24.1479 50.5644 23.962 50.6898 23.7525 50.7764C23.5436 50.8628 23.3243 50.9062 23.095 50.9062C22.865 50.9062 22.6458 50.8628 22.4366 50.7764C22.2279 50.6898 22.0415 50.5644 21.8784 50.4012C21.7102 50.2334 21.5852 50.0443 21.5039 49.8353C21.422 49.6212 21.3813 49.4047 21.3813 49.1851C21.3813 48.9663 21.422 48.7519 21.5039 48.543C21.5852 48.3334 21.7102 48.1447 21.8784 47.9769C22.0469 47.8082 22.2352 47.6834 22.4443 47.6019C22.6589 47.5155 22.8751 47.4714 23.095 47.4714C23.3142 47.4714 23.5284 47.5155 23.7371 47.6019C23.9513 47.6834 24.1428 47.8082 24.3109 47.9769L24.5481 48.2139L22.6431 50.1183C22.8373 50.2154 23.0412 50.2485 23.2553 50.2178C23.4746 50.1822 23.6659 50.0827 23.8291 49.9195L24.066 49.6826ZM22.3602 48.4509C22.1567 48.655 22.0544 48.8993 22.0544 49.1851C22.0544 49.3435 22.09 49.4937 22.1618 49.6363C22.2229 49.5754 22.3143 49.4834 22.4366 49.3615C22.5645 49.2334 22.6969 49.101 22.8345 48.9636C22.9775 48.8206 23.1126 48.6857 23.2402 48.5581C23.3727 48.4305 23.4746 48.3314 23.5462 48.2594C23.352 48.1627 23.1457 48.13 22.9265 48.1605C22.7121 48.191 22.5234 48.2879 22.3602 48.4509ZM18.4491 47.9613C18.6176 47.793 18.8057 47.668 19.015 47.5867C19.2292 47.5 19.4456 47.4567 19.6652 47.4567C19.8845 47.4567 20.0987 47.5 20.3076 47.5867C20.522 47.668 20.7131 47.793 20.8814 47.9613L21.1184 48.1983L20.6443 48.6803L20.3994 48.443C20.2975 48.3413 20.1828 48.2645 20.055 48.2139C19.9277 48.1627 19.7979 48.1372 19.6652 48.1372C19.5326 48.1372 19.4027 48.1627 19.2751 48.2139C19.1473 48.2645 19.0326 48.3413 18.9309 48.443C18.8287 48.5401 18.7523 48.6524 18.7015 48.7798C18.6503 48.9072 18.6249 49.0377 18.6249 49.1699C18.6249 49.3026 18.6503 49.4327 18.7015 49.5601C18.7523 49.6877 18.8287 49.802 18.9309 49.9043C19.1347 50.1082 19.3795 50.2101 19.6652 50.2101C19.803 50.2101 19.9352 50.1848 20.0629 50.1337C20.1903 50.0827 20.3025 50.0064 20.3994 49.9043L20.6443 49.6669L21.1184 50.1488L20.8814 50.3865C20.7131 50.5543 20.522 50.682 20.3076 50.7689C20.0987 50.85 19.8845 50.8911 19.6652 50.8911C19.4456 50.8911 19.2292 50.85 19.015 50.7689C18.8057 50.682 18.6176 50.5543 18.4491 50.3865C18.2808 50.2178 18.1556 50.0291 18.0743 49.82C17.9926 49.611 17.9518 49.3971 17.9518 49.1778C17.9518 48.9535 17.9926 48.7365 18.0743 48.5272C18.1556 48.3187 18.2808 48.13 18.4491 47.9613Z" fill="#E0040B"/>
</g>
<defs>
<clipPath id="clip0_296_430">
<rect width="64" height="64" fill="white"/>
</clipPath>
</defs>
</svg>
